<svg xmlns="http://www.w3.org/2000/svg" width="100" height="100" viewBox="5.0 -10.0 100.0 135.0"><path d="M75.195 72.96c-.62 0-1.24-.21-1.75-.64-1.146-.967-1.29-2.68-.324-3.827L88.73 50 73.122 31.507c-.967-1.146-.822-2.86.324-3.827 1.146-.968 2.86-.823 3.827.323L94.36 48.248c.854 1.012.854 2.492 0 3.503L77.272 71.996c-.537.637-1.304.965-2.077.965zM24.805 72.96c-.772 0-1.54-.328-2.076-.964L5.64 51.752c-.853-1.012-.853-2.492 0-3.503l17.09-20.246c.966-1.146 2.68-1.29 3.826-.324 1.146.967 1.29 2.68.324 3.827L11.27 50l15.608 18.493c.967 1.146.823 2.86-.323 3.827-.51.43-1.132.64-1.75.64zM37.325 72.96c-.492 0-.99-.134-1.438-.414-1.27-.796-1.657-2.47-.86-3.742l25.343-40.49c.796-1.27 2.472-1.655 3.743-.86 1.27.796 1.657 2.47.86 3.742L39.63 71.686c-.515.822-1.4 1.274-2.305 1.274z"/><text y="117.5" font-size="5" font-weight="bold" font-family="Helvetica Neue, Helvetica, Arial-Unicode, Arial, Sans-serif">Created by Eugen Belyakoff</text><text y="122.5" font-size="5" font-weight="bold" font-family="Helvetica Neue, Helvetica, Arial-Unicode, Arial, Sans-serif">from the Noun Project</text></svg>