<svg xmlns="http://www.w3.org/2000/svg" xmlns:xlink="http://www.w3.org/1999/xlink" version="1.1" id="Your_Icon" x="0px" y="0px" width="100px" height="100px" viewBox="5.0 -10.0 100.0 135.0" enable-background="new 0 0 100 100" xml:space="preserve">
<g>
	<g>
		<g>
			<g>
				<path fill="#000000" d="M75.195,72.96c-0.619,0-1.241-0.21-1.75-0.64c-1.146-0.967-1.291-2.681-0.324-3.827l15.609-18.493      L73.122,31.507c-0.967-1.146-0.822-2.859,0.324-3.827c1.146-0.968,2.859-0.823,3.827,0.323L94.36,48.248      c0.854,1.012,0.854,2.492,0,3.503L77.272,71.995C76.735,72.632,75.968,72.96,75.195,72.96z"/>
			</g>
		</g>
	</g>
	<g>
		<g>
			<g>
				<path fill="#000000" d="M24.805,72.96c-0.772,0-1.539-0.328-2.076-0.964L5.641,51.752c-0.854-1.012-0.854-2.492,0-3.503      l17.088-20.245c0.967-1.146,2.681-1.291,3.827-0.324c1.146,0.967,1.291,2.681,0.324,3.827L11.269,50.001l15.609,18.492      c0.967,1.146,0.823,2.859-0.323,3.827C26.045,72.749,25.423,72.96,24.805,72.96z"/>
			</g>
		</g>
	</g>
	<g>
		<path fill="#000000" d="M37.325,72.96c-0.492,0-0.99-0.134-1.438-0.414c-1.271-0.796-1.657-2.471-0.861-3.742L60.37,28.315    c0.796-1.271,2.472-1.656,3.743-0.861c1.271,0.796,1.657,2.471,0.861,3.742L39.63,71.685C39.115,72.508,38.23,72.96,37.325,72.96z    "/>
	</g>
</g>
<text x="0.0" y="117.5" font-size="5.0" font-weight="bold" font-family="Helvetica Neue, Helvetica, Arial-Unicode, Arial, Sans-serif" fill="#000000">Created by Eugen Belyakoff</text><text x="0.0" y="122.5" font-size="5.0" font-weight="bold" font-family="Helvetica Neue, Helvetica, Arial-Unicode, Arial, Sans-serif" fill="#000000">from the Noun Project</text></svg>